<svg xmlns="http://www.w3.org/2000/svg" width="3295.15" height="2553.87" viewBox="0 0 3295.15 2553.87"><g transform="translate(880.385 -455.799)"><g opacity="0.7"><path d="M0,0,2801.223,269.417l1.684,12.515L1.684,12.515Z" transform="translate(-360.612 2115.721) rotate(-17)" fill="#203945"/><path d="M0,0,2802.064,269.674l.843,6.258L.843,6.258Z" transform="translate(-347.163 2159.711) rotate(-17)" fill="#c0b597"/><g transform="translate(-797.078 586.5) rotate(7)"><path d="M-15.187,286.575,3294.1-138.172l2.655-12.812L-12.532,273.763Z" transform="matrix(0.985, 0.174, -0.174, 0.985, 43.493, 231.119)" fill="#d89c17"/><path d="M-14.873,280.479,3295.735-144.673l1.329-6.406L-13.544,274.073Z" transform="translate(109.677 0) rotate(17)" fill="#203945"/><path d="M-14.664,276.415,3296.83-149.008l.443-2.135L-14.22,274.279Z" transform="translate(103.025 21.039) rotate(17)" fill="#a6976c"/></g><path d="M0,0,2802.625,269.846l.281,2.086L.281,2.086Z" transform="matrix(0.656, -0.755, 0.755, 0.656, 5.492, 2831.266)" fill="#d89c17"/></g></g></svg>