<svg xmlns="http://www.w3.org/2000/svg" width="73.419" height="58" viewBox="0 0 73.419 58"><g transform="translate(-1363.399 -12)"><path d="M62.056,49.012H11.23l-.381-2H62.435l-.381,2Zm.57-3H10.658l-.305-1.6H62.932l-.305,1.6Zm.574-3H10.085L9.23,38.533A29.643,29.643,0,0,1,5.585,35.09,20.359,20.359,0,0,1,.772,26.725c-1.6-6.751-.649-9.788,2.238-14.447A8.189,8.189,0,0,1,6.368,9.441a19.789,19.789,0,0,1,4.477-1.546,32.546,32.546,0,0,1,5.6-.772A4.9,4.9,0,0,1,17.392,5.4,10.328,10.328,0,0,1,22.07,2.346C26.786.657,35.344.064,36.3,0h.279c1.333,0,8.208.075,12.685,1.561a14.705,14.705,0,0,1,5.4,3.167,10.109,10.109,0,0,1,1.651,1.92,32.376,32.376,0,0,1,6.035.851,20.939,20.939,0,0,1,4.932,1.8,10.217,10.217,0,0,1,3.887,3.382,13.834,13.834,0,0,1,2.205,8.707,27.747,27.747,0,0,1-2.205,8.385c-1.882,4.651-7.071,8.715-7.123,8.755L63.2,43.011ZM57.307,13.357a33.618,33.618,0,0,1-.617,10.4,41.765,41.765,0,0,1-4.438,10.248l7,0c.047-.084,4.8-8.558,4.316-13.69A7.638,7.638,0,0,0,60.255,14.9,11.457,11.457,0,0,0,57.307,13.357Zm-15.69-3.5c-.866,0-1.467.065-1.471.066l-1.9,24.094h7c.042-.144,4.283-14.753,3.8-19.862a4.164,4.164,0,0,0-2.938-3.571A12.717,12.717,0,0,0,41.617,9.852Zm-9.893,0a12.717,12.717,0,0,0-4.5.726,4.164,4.164,0,0,0-2.938,3.571c-.479,5.089,3.758,19.718,3.8,19.862h7l-1.9-24.094h0C33.04,9.9,32.49,9.852,31.724,9.852Zm-16.179,3.5A11.436,11.436,0,0,0,12.6,14.9a7.639,7.639,0,0,0-3.313,5.419C8.812,25.335,13.4,33.659,13.6,34.011h7L20.593,34a41.325,41.325,0,0,1-4.431-10.24A32.609,32.609,0,0,1,15.545,13.356Z" transform="translate(1363.399 20.988)" fill="#ffc746"/></g><path d="M57.828,49.011H10.465l-.284-1.6H58.113l-.284,1.6Zm.533-3H9.932l-.284-1.6h49l-.284,1.6Zm.533-3H9.4l-.8-4.479A28.626,28.626,0,0,1,5.2,35.09,20.741,20.741,0,0,1,.72,26.725C-.77,19.974.114,16.937,2.805,12.278A7.8,7.8,0,0,1,5.935,9.441a17.608,17.608,0,0,1,4.171-1.546,28.379,28.379,0,0,1,5.215-.772A5,5,0,0,1,16.208,5.4a9.622,9.622,0,0,1,4.359-3.055C24.962.657,32.937.064,33.832,0h.26c1.242,0,7.65.075,11.821,1.561a13.549,13.549,0,0,1,5.035,3.167,10.011,10.011,0,0,1,1.538,1.92,28.267,28.267,0,0,1,5.625.85,18.7,18.7,0,0,1,4.6,1.8,9.76,9.76,0,0,1,3.623,3.382,14.624,14.624,0,0,1,2.055,8.708,29.363,29.363,0,0,1-2.055,8.385c-1.752,4.646-6.59,8.715-6.638,8.755l-.8,4.478ZM53.4,13.357a35.688,35.688,0,0,1-.576,10.4,43.322,43.322,0,0,1-4.136,10.251h6.524c.044-.084,4.473-8.547,4.022-13.69A7.719,7.719,0,0,0,56.151,14.9,10.337,10.337,0,0,0,53.4,13.357Zm-14.621-3.5a12.783,12.783,0,0,0-1.371.066L35.645,34.012h6.523c.039-.143,4-14.691,3.542-19.862a4.111,4.111,0,0,0-2.737-3.571A11.119,11.119,0,0,0,38.783,9.852Zm-9.219,0a11.119,11.119,0,0,0-4.191.726,4.111,4.111,0,0,0-2.738,3.571c-.452,5.151,3.5,19.718,3.542,19.862H32.7L30.934,9.918A13.226,13.226,0,0,0,29.564,9.852Zm-15.078,3.5h0A10.332,10.332,0,0,0,11.74,14.9a7.72,7.72,0,0,0-3.087,5.419c-.441,5.027,3.839,13.338,4.021,13.689H19.2L19.191,34a42.912,42.912,0,0,1-4.129-10.24,34.967,34.967,0,0,1-.575-10.4Z" transform="translate(2 8.988)" fill="#ffc746"/><g transform="translate(29.601)" fill="#ffc746" stroke="#ffc746" stroke-width="1"><circle cx="6.5" cy="6.5" r="6.5" stroke="none"/><circle cx="6.5" cy="6.5" r="6" fill="none"/></g></svg>